<svg viewBox="0 0 1024 1024" xml:space="preserve" xmlns="http://www.w3.org/2000/svg"><linearGradient gradientTransform="scale(1 -1) rotate(-20.004 -2033.49 -1165.28)" gradientUnits="userSpaceOnUse" id="a" x1="464.132" x2="-194.284" y1="-72.911" y2="711.668"><stop offset="0" stop-color="#3ddc97" class="stop-color-08aa4b"></stop><stop offset=".209" stop-color="#3ddc97" class="stop-color-0bb34b"></stop><stop offset=".549" stop-color="#3ddc97" class="stop-color-14cb4b"></stop><stop offset=".977" stop-color="#3ddc97" class="stop-color-22f34c"></stop><stop offset="1" stop-color="#65e3ac" class="stop-color-23f54c"></stop></linearGradient><circle cx="512.001" cy="512" fill="url(#a)" r="512" class="fillurl(-a)"></circle><path d="M242.102 326.146c.253-.067.501-.156.752-.233 20.763-6.34 42.188-10.79 63.528-14.648 47.463-8.582 95.713-13.013 143.938-13.453 65.015-.592 130.184 6.246 193.406 21.558 36.021 8.724 71.379 20.201 105.586 34.475 16.003 6.677 32.021 13.412 47.385 21.479 13.396 7.035 26.776 13.979 35.749 26.608 9.934 13.984 8.567 30.109-1.447 43.735-20.897 28.434-44.402 17.723-70.472 5.118-49.03-23.707-104.79-41.465-158.081-52.67-60.058-12.625-121.66-17.937-182.987-15.431-52.587 2.148-104.905 10.07-155.784 23.53 0 0-46.586 11.852-56.342-29.882-8.994-38.473 34.71-50.17 34.769-50.186zM265.787 480.146c.218-.058.431-.135.647-.2 17.85-5.451 36.27-9.276 54.615-12.594 40.805-7.377 82.285-11.188 123.745-11.564 55.894-.509 111.921 5.369 166.274 18.533 30.967 7.5 61.364 17.366 90.772 29.638 13.757 5.74 27.528 11.53 40.736 18.466 11.518 6.047 23.021 12.019 30.733 22.875 8.541 12.022 7.366 25.885-1.243 37.6-17.967 24.444-38.173 15.236-60.586 4.399-42.152-20.381-90.09-35.647-135.903-45.279-51.632-10.854-104.592-15.421-157.315-13.267-45.21 1.847-90.188 8.657-133.93 20.229 0 0-40.05 10.188-48.438-25.69-7.73-33.076 29.843-43.132 29.893-43.146zM282.517 623.367c.187-.05.368-.115.553-.172 15.243-4.654 30.97-7.921 46.637-10.753 34.843-6.3 70.264-9.554 105.667-9.875 47.728-.436 95.571 4.585 141.984 15.825 26.442 6.405 52.399 14.83 77.512 25.309 11.747 4.901 23.506 9.847 34.785 15.769 9.835 5.164 19.656 10.263 26.244 19.534 7.292 10.266 6.291 22.104-1.063 32.106-15.341 20.874-32.597 13.011-51.735 3.757-35.994-17.403-76.929-30.44-116.05-38.666-44.089-9.27-89.313-13.167-134.333-11.328-38.605 1.576-77.013 7.392-114.363 17.274 0 0-34.201 8.699-41.361-21.938-6.603-28.244 25.48-36.831 25.523-36.842z" fill="#f7f4f4" class="fill-ffffff"></path></svg>